<svg width="84" height="25" viewBox="0 0 84 25" fill="none" xmlns="http://www.w3.org/2000/svg">
<path d="M18.854 3.556V19H15.092V9.738L11.638 19H8.602L5.126 9.716V19H1.364V3.556H5.808L10.142 14.248L14.432 3.556H18.854ZM20.3713 12.84C20.3713 11.5787 20.606 10.4713 21.0753 9.518C21.5593 8.56467 22.212 7.83133 23.0333 7.318C23.8546 6.80467 24.7713 6.548 25.7833 6.548C26.6486 6.548 27.404 6.724 28.0493 7.076C28.7093 7.428 29.2153 7.89 29.5673 8.462V6.724H33.3293V19H29.5673V17.262C29.2006 17.834 28.6873 18.296 28.0273 18.648C27.382 19 26.6266 19.176 25.7613 19.176C24.764 19.176 23.8546 18.9193 23.0333 18.406C22.212 17.878 21.5593 17.1373 21.0753 16.184C20.606 15.216 20.3713 14.1013 20.3713 12.84ZM29.5673 12.862C29.5673 11.9233 29.3033 11.1827 28.7753 10.64C28.262 10.0973 27.6313 9.826 26.8833 9.826C26.1353 9.826 25.4973 10.0973 24.9693 10.64C24.456 11.168 24.1993 11.9013 24.1993 12.84C24.1993 13.7787 24.456 14.5267 24.9693 15.084C25.4973 15.6267 26.1353 15.898 26.8833 15.898C27.6313 15.898 28.262 15.6267 28.7753 15.084C29.3033 14.5413 29.5673 13.8007 29.5673 12.862ZM43.091 6.592C44.5283 6.592 45.6723 7.06133 46.523 8C47.3883 8.924 47.821 10.2 47.821 11.828V19H44.081V12.334C44.081 11.5127 43.8683 10.8747 43.443 10.42C43.0176 9.96533 42.4456 9.738 41.727 9.738C41.0083 9.738 40.4363 9.96533 40.011 10.42C39.5856 10.8747 39.373 11.5127 39.373 12.334V19H35.611V6.724H39.373V8.352C39.7543 7.80933 40.2676 7.384 40.913 7.076C41.5583 6.75333 42.2843 6.592 43.091 6.592ZM49.2472 12.84C49.2472 11.5787 49.4818 10.4713 49.9512 9.518C50.4352 8.56467 51.0878 7.83133 51.9092 7.318C52.7305 6.80467 53.6472 6.548 54.6592 6.548C55.4658 6.548 56.1992 6.71667 56.8592 7.054C57.5338 7.39133 58.0618 7.846 58.4432 8.418V2.72H62.2052V19H58.4432V17.24C58.0912 17.8267 57.5852 18.296 56.9252 18.648C56.2798 19 55.5245 19.176 54.6592 19.176C53.6472 19.176 52.7305 18.9193 51.9092 18.406C51.0878 17.878 50.4352 17.1373 49.9512 16.184C49.4818 15.216 49.2472 14.1013 49.2472 12.84ZM58.4432 12.862C58.4432 11.9233 58.1792 11.1827 57.6512 10.64C57.1378 10.0973 56.5072 9.826 55.7592 9.826C55.0112 9.826 54.3732 10.0973 53.8452 10.64C53.3318 11.168 53.0752 11.9013 53.0752 12.84C53.0752 13.7787 53.3318 14.5267 53.8452 15.084C54.3732 15.6267 55.0112 15.898 55.7592 15.898C56.5072 15.898 57.1378 15.6267 57.6512 15.084C58.1792 14.5413 58.4432 13.8007 58.4432 12.862ZM68.2488 2.72V19H64.4868V2.72H68.2488ZM83.0751 6.724L75.3751 24.83H71.3271L74.1431 18.582L69.1491 6.724H73.3511L76.1891 14.402L79.0051 6.724H83.0751Z" fill="#9E9E9E"/>
</svg>
